<?xml version="1.0" encoding="UTF-8"?>
<svg width="20px" height="20px" viewBox="0 0 20 20" version="1.1" xmlns="http://www.w3.org/2000/svg" xmlns:xlink="http://www.w3.org/1999/xlink">
    <!-- Generator: Sketch 42 (36781) - http://www.bohemiancoding.com/sketch -->
    <title>Alert Hover</title>
    <desc>Created with Sketch.</desc>
    <defs></defs>
    <g id="Page-1" stroke="none" stroke-width="1" fill="none" fill-rule="evenodd">
        <g id="ELEMENTS" transform="translate(-552.000000, -326.000000)" fill="#FFFFFF">
            <g id="alert-white" transform="translate(550.000000, 326.000000)">
                <path d="M12,20 C6.4771525,20 2,15.5228475 2,10 C2,4.4771525 6.4771525,0 12,0 C17.5228475,0 22,4.4771525 22,10 C22,15.5228475 17.5228475,20 12,20 Z M10.75,4 L10.75,11 L13.25,11 L13.25,4 L10.75,4 Z M12,16 C12.8284271,16 13.5,15.3284271 13.5,14.5 C13.5,13.6715729 12.8284271,13 12,13 C11.1715729,13 10.5,13.6715729 10.5,14.5 C10.5,15.3284271 11.1715729,16 12,16 Z" id="Combined-Shape"></path>
            </g>
        </g>
    </g>
</svg>