<?xml version="1.0" encoding="UTF-8"?>
<svg width="20px" height="20px" viewBox="0 0 20 20" version="1.1" xmlns="http://www.w3.org/2000/svg" xmlns:xlink="http://www.w3.org/1999/xlink">
    <!-- Generator: Sketch 42 (36781) - http://www.bohemiancoding.com/sketch -->
    <title>delete_hover</title>
    <desc>Created with Sketch.</desc>
    <defs></defs>
    <g id="Symbols" stroke="none" stroke-width="1" fill="none" fill-rule="evenodd">
        <g id="delete_hover">
            <path d="M4,4.49406028 C4,3.3927712 4.90195036,2.5 6.0085302,2.5 L13.9914698,2.5 C15.1007504,2.5 16,3.39451376 16,4.49406028 L16,16.5059397 C16,17.6072288 15.0980496,18.5 13.9914698,18.5 L6.0085302,18.5 C4.8992496,18.5 4,17.6054862 4,16.5059397 L4,4.49406028 Z M13.75,5.5 L12.25,5.5 L12.25,16.5 L13.75,16.5 L13.75,5.5 Z M10.75,5.5 L9.25,5.5 L9.25,16.5 L10.75,16.5 L10.75,5.5 Z M7.75,5.5 L6.25,5.5 L6.25,16.5 L7.75,16.5 L7.75,5.5 Z" id="Combined-Shape" fill="#FFB900"></path>
            <rect id="Rectangle-2" fill="#FFB900" x="2" y="2.5" width="16" height="2"></rect>
            <g id="Group" transform="translate(6.250000, 5.500000)"></g>
            <rect id="Rectangle-2" fill="#FFB900" x="8" y="0.5" width="4" height="4" rx="2"></rect>
        </g>
    </g>
</svg>