<?xml version="1.0" encoding="UTF-8"?>
<svg width="24px" height="24px" viewBox="0 0 24 24" version="1.1" xmlns="http://www.w3.org/2000/svg" xmlns:xlink="http://www.w3.org/1999/xlink">
    <!-- Generator: Sketch 46.2 (44496) - http://www.bohemiancoding.com/sketch -->
    <title>info-hover</title>
    <desc>Created with Sketch.</desc>
    <defs></defs>
    <g id="Symbols" stroke="none" stroke-width="1" fill="none" fill-rule="evenodd">
        <g id="info-hover" fill="#FFB900">
            <path d="M12,22 C6.4771525,22 2,17.5228475 2,12 C2,6.4771525 6.4771525,2 12,2 C17.5228475,2 22,6.4771525 22,12 C22,17.5228475 17.5228475,22 12,22 Z M12,9 C13.1045695,9 14,8.1045695 14,7 C14,5.8954305 13.1045695,5 12,5 C10.8954305,5 10,5.8954305 10,7 C10,8.1045695 10.8954305,9 12,9 Z M10.5,11 L10.5,19 L13.5,19 L13.5,11 L10.5,11 Z" id="Combined-Shape"></path>
        </g>
    </g>
</svg>