<?xml version="1.0" encoding="UTF-8"?>
<svg width="20px" height="20px" viewBox="0 0 20 20" version="1.1" xmlns="http://www.w3.org/2000/svg" xmlns:xlink="http://www.w3.org/1999/xlink">
    <!-- Generator: Sketch 42 (36781) - http://www.bohemiancoding.com/sketch -->
    <title>question mark white</title>
    <desc>Created with Sketch.</desc>
    <defs></defs>
    <g id="Page-1" stroke="none" stroke-width="1" fill="none" fill-rule="evenodd">
        <g id="ELEMENTS" transform="translate(-229.000000, -516.000000)">
            <g id="question-mark-hover" transform="translate(227.000000, 516.000000)">
                <rect id="Rectangle" fill="#FFB900" x="8" y="2" width="8" height="16"></rect>
                <path d="M12,20 C6.4771525,20 2,15.5228475 2,10 C2,4.4771525 6.4771525,0 12,0 C17.5228475,0 22,4.4771525 22,10 C22,15.5228475 17.5228475,20 12,20 Z M10.3397305,12.176 L12.7077305,12.176 L12.7077305,10.912 L13.8437305,9.536 C14.8677305,8.304 15.2037305,7.6 15.2037305,6.704 C15.2037305,5.12 13.9557305,4.144 12.1477305,4.144 C10.0357305,4.144 8.72373047,5.472 8.72373047,7.456 L10.8997305,7.456 C10.8997305,7.264 10.8997305,7.12 10.9477305,6.944 C11.0597305,6.48 11.4117305,6.176 11.9557305,6.176 C12.5477305,6.176 12.9797305,6.528 12.9797305,7.072 C12.9797305,7.456 12.7397305,7.776 12.2917305,8.32 L10.3397305,10.704 L10.3397305,12.176 Z M11.5077305,16.24 C12.3077305,16.24 12.9637305,15.584 12.9637305,14.784 C12.9637305,13.984 12.3077305,13.328 11.5077305,13.328 C10.7077305,13.328 10.0517305,13.984 10.0517305,14.784 C10.0517305,15.584 10.7077305,16.24 11.5077305,16.24 Z" id="Combined-Shape" fill="#333333"></path>
            </g>
        </g>
    </g>
</svg>